<svg width="72" height="66" viewBox="0 0 72 66" fill="none" xmlns="http://www.w3.org/2000/svg">
<g clip-path="url(#clip0_178_2056)">
<path d="M34.6189 47.717L13.4956 65.7552L13.0666 52.3362L0.0546875 49.6654L14.7562 37.1089C14.7545 38.1765 14.8898 39.1658 15.4409 39.9315C16.9177 41.9834 20.7803 41.6931 22.8098 43.1861C24.8195 44.6642 25.732 48.476 28.1459 49.2684C30.0665 49.899 32.4095 48.2958 34.6189 47.717Z" fill="#C9314B"/>
<path opacity="0.2" d="M34.6189 47.717L32.3633 49.6437C30.1622 50.2276 27.8308 51.8141 25.9184 51.1868C23.5045 50.3944 22.592 46.5826 20.5823 45.1046C18.5528 43.6115 14.6902 43.9018 13.2134 41.8499C12.6623 41.0842 12.527 40.095 12.5287 39.0273L0.0695375 49.6688L0.0546875 49.6654L14.7562 37.1089C14.7545 38.1765 14.8898 39.1658 15.4409 39.9315C16.9177 41.9834 20.7803 41.6931 22.8098 43.1861C24.8195 44.6642 25.732 48.476 28.1459 49.2684C30.0665 49.899 32.4095 48.2958 34.6189 47.717Z" fill="black"/>
<path d="M57.2436 37.1089L71.9451 49.6654L58.9332 52.3362L58.5042 65.7552L37.3809 47.717C39.5902 48.2958 41.9316 49.899 43.8538 49.2684C46.2678 48.476 47.1802 44.6642 49.1883 43.1861C51.2178 41.6931 55.0804 41.9834 56.5572 39.9315C57.1083 39.1658 57.2452 38.1765 57.2436 37.1089Z" fill="#C9314B"/>
<path d="M57.3475 17.8163C58.1032 20.1701 61.4098 22.2204 61.4098 24.8294C61.4098 27.4385 58.1032 29.487 57.3475 31.8425C56.8591 33.3639 57.2403 35.3424 57.2436 37.109C57.2452 38.1767 57.1083 39.1659 56.5572 39.9316C55.0804 41.9835 51.2178 41.6932 49.1883 43.1863C47.1802 44.6643 46.2678 48.4761 43.8538 49.2685C41.9316 49.8991 39.5902 48.296 37.3809 47.7171C36.9123 47.5937 36.4503 47.5169 35.9998 47.5169C35.5494 47.5169 35.0874 47.5937 34.6188 47.7171C32.4094 48.296 30.0664 49.8991 28.1458 49.2685C25.7319 48.4761 24.8194 44.6643 22.8097 43.1863C20.7802 41.6932 16.9176 41.9835 15.4408 39.9316C14.8897 39.1659 14.7544 38.1767 14.7561 37.109C14.7594 35.3424 15.1405 33.3639 14.6521 31.8425C13.8948 29.4887 10.5898 27.4385 10.5898 24.8294C10.5898 22.2204 13.8948 20.1701 14.6521 17.8163C15.4359 15.3757 13.9789 11.7591 15.4408 9.72721C16.9176 7.67532 20.7802 7.96559 22.8097 6.47255C24.8194 4.99453 25.7319 1.1827 28.1458 0.390301C30.474 -0.373734 33.4192 2.14191 35.9998 2.14191C38.5804 2.14191 41.524 -0.373734 43.8538 0.390301C46.2678 1.1827 47.1802 4.99453 49.1883 6.47255C51.2178 7.96559 55.0804 7.67532 56.5572 9.72721C58.0191 11.7591 56.5638 15.3757 57.3475 17.8163ZM52.1467 24.8294C52.1467 15.8128 44.9164 8.50442 35.9998 8.50442C27.0816 8.50442 19.8529 15.8128 19.8529 24.8294C19.8529 33.8444 27.0816 41.1544 35.9998 41.1544C44.9164 41.1544 52.1467 33.8444 52.1467 24.8294Z" fill="#DD6475"/>
<g opacity="0.2">
<path d="M61.4096 24.8293C61.4096 22.2203 58.103 20.17 57.3473 17.8162C56.5635 15.3756 58.0188 11.759 56.5569 9.72712C55.0802 7.67524 51.2175 7.96551 49.188 6.47247C47.18 4.99444 46.2675 1.18261 43.8536 0.390215C43.22 0.18169 42.5402 0.216723 41.8356 0.378538C41.8488 0.381874 41.8604 0.386879 41.8736 0.390215C44.2875 1.18261 45.2 4.99444 47.208 6.47247C49.2375 7.96551 53.1002 7.67524 54.5769 9.72712C56.0388 11.759 54.5835 15.3756 55.3673 17.8162C56.123 20.17 59.4296 22.2203 59.4296 24.8293C59.4296 27.4384 56.123 29.4869 55.3673 31.8424C54.8789 33.3638 55.26 35.3423 55.2633 37.1089C55.265 38.1766 55.128 39.1658 54.5769 39.9315C53.1002 41.9834 49.2375 41.6931 47.208 43.1862C45.2 44.6642 44.2875 48.476 41.8736 49.2684C41.8604 49.2734 41.8472 49.2768 41.834 49.2801C42.5402 49.4419 43.22 49.477 43.8536 49.2684C46.2675 48.476 47.18 44.6642 49.188 43.1862C51.2175 41.6931 55.0802 41.9834 56.5569 39.9315C57.108 39.1658 57.245 38.1766 57.2433 37.1089C57.24 35.3423 56.8589 33.3638 57.3473 31.8424C58.103 29.4869 61.4096 27.4384 61.4096 24.8293Z" fill="black"/>
</g>
<path d="M52.1473 24.8294C52.1473 33.8443 44.917 41.1544 36.0004 41.1544C27.0822 41.1544 19.8535 33.8443 19.8535 24.8294C19.8535 15.8128 27.0822 8.50439 36.0004 8.50439C44.917 8.50439 52.1473 15.8128 52.1473 24.8294Z" fill="#FFC035"/>
<path opacity="0.2" d="M37.3809 47.717L39.6364 49.6437C41.8375 50.2276 44.169 51.8141 46.0813 51.1868C48.4953 50.3944 49.4077 46.5826 51.4174 45.1046C53.4469 43.6115 57.3096 43.9018 58.7863 41.8499C59.3374 41.0842 59.4727 40.095 59.4711 39.0273L71.9302 49.6688L71.9451 49.6654L57.2436 37.1089C57.2452 38.1765 57.1099 39.1658 56.5588 39.9315C55.0821 41.9834 51.2194 41.6931 49.1899 43.1861C47.1802 44.6642 46.2678 48.476 43.8538 49.2684C41.9332 49.899 39.5902 48.2958 37.3809 47.717Z" fill="black"/>
<path opacity="0.2" d="M52.1469 24.8294C52.1469 33.8443 44.9166 41.1544 36 41.1544V8.50439C44.9166 8.50439 52.1469 15.8128 52.1469 24.8294Z" fill="url(#paint0_linear_178_2056)"/>
</g>
<defs>
<linearGradient id="paint0_linear_178_2056" x1="36" y1="24.8294" x2="52.1469" y2="24.8294" gradientUnits="userSpaceOnUse">
<stop/>
<stop offset="1" stop-color="white" stop-opacity="0"/>
</linearGradient>
<clipPath id="clip0_178_2056">
<rect width="72" height="66" fill="white"/>
</clipPath>
</defs>
</svg>
