<svg width="25" height="25" viewBox="0 0 25 25" fill="none" xmlns="http://www.w3.org/2000/svg">
<path fill-rule="evenodd" clip-rule="evenodd" d="M23.7104 1.71101C24.101 1.32049 24.101 0.687324 23.7104 0.296799C23.3199 -0.0937248 22.6867 -0.0937248 22.2962 0.296799L12.0036 10.5894L1.71104 0.296799C1.32052 -0.0937248 0.687354 -0.0937248 0.29683 0.296799C-0.0936943 0.687324 -0.0936943 1.32049 0.29683 1.71101L10.5894 12.0036L0.29683 22.2962C-0.0936943 22.6867 -0.0936943 23.3199 0.29683 23.7104C0.687354 24.1009 1.32052 24.1009 1.71104 23.7104L12.0036 13.4178L22.2962 23.7104C22.6867 24.1009 23.3199 24.1009 23.7104 23.7104C24.101 23.3199 24.101 22.6867 23.7104 22.2962L13.4178 12.0036L23.7104 1.71101Z" fill="white"/>
</svg>
