<svg width="19" height="20" viewBox="0 0 19 20" fill="none" xmlns="http://www.w3.org/2000/svg">
<path d="M1.41999 19.0789C1.28125 19.0787 1.14408 19.0496 1.0172 18.9934C0.890315 18.9373 0.7765 18.8554 0.68299 18.7529C0.587788 18.6513 0.515143 18.5307 0.469818 18.399C0.424493 18.2674 0.407513 18.1276 0.41999 17.9889L0.66499 15.2949L11.983 3.98091L15.52 7.51691L4.20499 18.8299L1.51099 19.0749C1.48074 19.0777 1.45037 19.079 1.41999 19.0789ZM16.226 6.80991L12.69 3.27391L14.811 1.15291C14.9039 1.05993 15.0142 0.98617 15.1355 0.935846C15.2569 0.885522 15.3871 0.859619 15.5185 0.859619C15.6499 0.859619 15.78 0.885522 15.9014 0.935846C16.0228 0.98617 16.1331 1.05993 16.226 1.15291L18.347 3.27391C18.44 3.36678 18.5137 3.47707 18.5641 3.59847C18.6144 3.71986 18.6403 3.84999 18.6403 3.98141C18.6403 4.11282 18.6144 4.24295 18.5641 4.36435C18.5137 4.48574 18.44 4.59603 18.347 4.68891L16.227 6.80891L16.226 6.80991Z" fill="white"/>
</svg>
