<svg width="134" height="50" viewBox="0 0 134 50" fill="none" xmlns="http://www.w3.org/2000/svg">
<path fill-rule="evenodd" clip-rule="evenodd" d="M11.0612 6.02832C14.2017 6.02832 16.7493 8.6003 16.7493 11.7708C16.7493 14.9413 14.2017 17.5133 11.0612 17.5133C7.9207 17.5133 5.37305 14.9413 5.37305 11.7708C5.37839 8.6003 7.9207 6.02832 11.0612 6.02832Z" fill="#009DE2"/>
<path fill-rule="evenodd" clip-rule="evenodd" d="M36.7941 7.6189C37.9745 7.6189 38.9305 8.58406 38.9305 9.7757C38.9305 10.9673 37.9745 11.9325 36.7941 11.9325C35.6138 11.9325 34.6577 10.9673 34.6577 9.7757C34.6577 8.58406 35.6138 7.6189 36.7941 7.6189Z" fill="#134093"/>
<path fill-rule="evenodd" clip-rule="evenodd" d="M42.5997 13.9492C44.0258 13.9492 45.1794 15.1139 45.1794 16.5536C45.1794 17.9932 44.0258 19.1579 42.5997 19.1579C41.1737 19.1579 40.02 17.9932 40.02 16.5536C40.02 15.1139 41.1737 13.9492 42.5997 13.9492Z" fill="#E4007D"/>
<path fill-rule="evenodd" clip-rule="evenodd" d="M44.9229 23.0508C46.5946 23.0508 47.9459 24.4204 47.9459 26.1027C47.9459 27.7904 46.5893 29.1545 44.9229 29.1545C43.2512 29.1545 41.8999 27.785 41.8999 26.1027C41.8999 24.415 43.2512 23.0508 44.9229 23.0508Z" fill="#76B728"/>
<path fill-rule="evenodd" clip-rule="evenodd" d="M42.0122 32.8911C43.9296 32.8911 45.4785 34.4602 45.4785 36.3905C45.4785 38.3209 43.9243 39.8899 42.0122 39.8899C40.0948 39.8899 38.5459 38.3209 38.5459 36.3905C38.5459 34.4602 40.0948 32.8911 42.0122 32.8911Z" fill="#E4310E"/>
<path fill-rule="evenodd" clip-rule="evenodd" d="M33.4665 40.1489C35.6296 40.1489 37.3761 41.9175 37.3761 44.0959C37.3761 46.2742 35.6243 48.0428 33.4665 48.0428C31.3087 48.0428 29.5569 46.2742 29.5569 44.0959C29.5516 41.9175 31.3034 40.1489 33.4665 40.1489Z" fill="#00953F"/>
<path fill-rule="evenodd" clip-rule="evenodd" d="M21.2465 41.2056C23.6499 41.2056 25.6047 43.1736 25.6047 45.6C25.6047 48.0264 23.6553 49.9999 21.2465 49.9999C18.8377 49.9999 16.8936 48.0318 16.8936 45.6C16.8882 43.1736 18.8377 41.2056 21.2465 41.2056Z" fill="#FFEC00"/>
<path fill-rule="evenodd" clip-rule="evenodd" d="M9.9075 34.0181C12.5566 34.0181 14.7091 36.1856 14.7091 38.8655C14.7091 41.5399 12.562 43.7129 9.9075 43.7129C7.25837 43.7129 5.10596 41.5453 5.10596 38.8655C5.1113 36.1856 7.25837 34.0181 9.9075 34.0181Z" fill="#5E4E9B"/>
<path fill-rule="evenodd" clip-rule="evenodd" d="M5.24485 20.2471C8.13966 20.2471 10.4897 22.6142 10.4897 25.542C10.4897 28.4645 8.145 30.837 5.24485 30.837C2.34469 30.8316 0 28.4645 0 25.542C0 22.6195 2.34469 20.2471 5.24485 20.2471Z" fill="#FCC200"/>
<path fill-rule="evenodd" clip-rule="evenodd" d="M25.3483 11.8516C28.5902 11.8516 31.218 9.19875 31.218 5.92581C31.218 2.65286 28.5902 0 25.3483 0C22.1063 0 19.4785 2.65286 19.4785 5.92581C19.4785 9.19336 22.1063 11.8516 25.3483 11.8516Z" fill="#EB6502"/>
<path d="M121.438 36.175H120.258V39.1783H117.982V31.2575H120.258V34.3309H121.481L123.606 31.2575H126.026L123.286 35.0535L126.213 39.1729H123.532L121.438 36.175ZM111.936 37.4098C112.529 37.4098 113.01 37.2103 113.378 36.8059C113.747 36.4015 113.934 35.8784 113.934 35.2314C113.934 34.5736 113.747 34.0398 113.378 33.6354C113.01 33.231 112.529 33.0261 111.936 33.0261C111.344 33.0261 110.868 33.2256 110.5 33.63C110.136 34.0344 109.955 34.5628 109.955 35.2206C109.955 35.8784 110.136 36.4069 110.494 36.8113C110.858 37.2049 111.338 37.4098 111.936 37.4098ZM112.038 31.1443C112.871 31.1443 113.603 31.3114 114.222 31.6457C114.842 31.98 115.323 32.4545 115.664 33.0746C116.006 33.6947 116.177 34.4118 116.177 35.2368C116.177 36.0402 116.017 36.7519 115.696 37.3612C115.376 37.9759 114.922 38.4504 114.34 38.7901C113.758 39.1298 113.085 39.297 112.332 39.297C111.333 39.297 110.548 38.9788 109.987 38.3426V42.0361H107.712V35.2476C107.712 34.4334 107.893 33.7162 108.251 33.1016C108.609 32.4815 109.116 32.0016 109.768 31.6619C110.42 31.3114 111.178 31.1443 112.038 31.1443ZM101.447 37.4098C102.018 37.4098 102.494 37.2103 102.873 36.8166C103.252 36.4176 103.439 35.8892 103.439 35.2206C103.439 34.552 103.252 34.0236 102.873 33.6246C102.494 33.2256 102.018 33.0315 101.447 33.0315C100.865 33.0315 100.384 33.231 100.005 33.6246C99.6254 34.0236 99.4385 34.552 99.4385 35.2206C99.4385 35.8892 99.6254 36.4176 100.005 36.8166C100.384 37.2103 100.865 37.4098 101.447 37.4098ZM105.671 31.2575V39.1729H103.503V38.2617C102.937 38.9465 102.125 39.2916 101.057 39.2916C100.32 39.2916 99.6521 39.1244 99.0539 38.7901C98.4557 38.4558 97.9857 37.9813 97.6492 37.3612C97.3074 36.7412 97.1419 36.0294 97.1419 35.2152C97.1419 34.401 97.3128 33.6839 97.6492 33.0692C97.9911 32.4491 98.4557 31.9746 99.0539 31.6403C99.6521 31.306 100.32 31.1389 101.057 31.1389C102.056 31.1389 102.841 31.457 103.401 32.0933V31.2575H105.671V31.2575ZM95.3686 31.2575V39.1729H93.0934V33.1447H89.83V39.1729H87.5708V31.2575H95.3686ZM81.4073 34.1153H85.5306V35.9539H81.4073V34.1153ZM80.0187 31.7589C79.1427 31.2467 78.2081 30.9232 77.204 30.7722V39.1729H74.8432V30.7722C73.8445 30.9178 72.8991 31.2467 72.0179 31.7589L71.2167 29.9796C71.9164 29.559 72.6748 29.2409 73.492 29.0252C74.3091 28.8095 75.1477 28.7017 76.0129 28.7017C76.8888 28.7017 77.7327 28.8095 78.5552 29.0252C79.3777 29.2409 80.1308 29.559 80.8198 29.9796L80.0187 31.7589ZM69.6732 28.8742V39.1729H67.3872V37.922C66.6875 38.871 65.6567 39.3509 64.3001 39.3509C63.0984 39.3509 62.1584 38.9681 61.4801 38.197C60.8071 37.4259 60.4653 36.3314 60.4653 34.9079V28.8742H62.826V34.8324C62.826 35.6574 63.0183 36.2774 63.4028 36.6926C63.7874 37.1078 64.3108 37.3181 64.9678 37.3181C65.6781 37.3181 66.2442 37.097 66.6715 36.6495C67.0988 36.202 67.3124 35.5441 67.3124 34.6706V28.8742H69.6732ZM129.962 12.1482C128.253 12.1482 127.393 11.388 127.383 9.86743H128.867C128.878 10.2125 128.974 10.4767 129.15 10.6708C129.332 10.8596 129.594 10.9566 129.946 10.9566C130.293 10.9566 130.566 10.8596 130.753 10.6708C130.94 10.4821 131.036 10.2125 131.036 9.86743H132.553C132.547 11.3934 131.682 12.1482 129.962 12.1482ZM134 13.0056V20.921H131.832V19.9936C131.538 20.3387 131.185 20.5975 130.763 20.7754C130.341 20.9534 129.893 21.0397 129.417 21.0397C128.387 21.0397 127.569 20.7431 126.961 20.1446C126.352 19.5461 126.053 18.6564 126.053 17.4809V13.011H128.328V17.1466C128.328 18.4191 128.857 19.0608 129.914 19.0608C130.47 19.0608 130.908 18.8829 131.239 18.5216C131.57 18.1657 131.735 17.6319 131.735 16.9256V13.011H134V13.0056ZM123.884 13.0056V20.921H121.716V19.9936C121.422 20.3387 121.069 20.5975 120.642 20.7754C120.22 20.9534 119.772 21.0397 119.296 21.0397C118.265 21.0397 117.448 20.7431 116.839 20.1446C116.231 19.5461 115.926 18.6564 115.926 17.4809V13.011H118.201V17.1466C118.201 18.4191 118.73 19.0608 119.788 19.0608C120.343 19.0608 120.781 18.8829 121.112 18.5216C121.443 18.1657 121.609 17.6319 121.609 16.9256V13.011H123.884V13.0056ZM110.19 17.9177H109.01V20.921H106.734V13.0056H109.01V16.079H110.233L112.358 13.0056H114.778L112.038 16.8015L114.965 20.921H112.284L110.19 17.9177ZM101.634 21.0343C100.8 21.0343 100.047 20.8617 99.3851 20.5112C98.7174 20.1608 98.1994 19.6809 97.8255 19.0608C97.4516 18.4407 97.2647 17.7398 97.2647 16.9579C97.2647 16.1761 97.4516 15.4697 97.8255 14.855C98.1994 14.235 98.7174 13.7551 99.3851 13.4046C100.053 13.0541 100.8 12.8816 101.634 12.8816C102.461 12.8816 103.183 13.0541 103.797 13.4046C104.411 13.7551 104.865 14.2511 105.143 14.8982L103.38 15.8525C102.974 15.1246 102.387 14.7634 101.618 14.7634C101.025 14.7634 100.533 14.9575 100.143 15.3511C99.7536 15.7447 99.5613 16.2785 99.5613 16.9525C99.5613 17.6265 99.7536 18.1657 100.143 18.5539C100.533 18.9476 101.025 19.1417 101.618 19.1417C102.397 19.1417 102.985 18.7804 103.38 18.0525L105.143 19.023C104.86 19.6485 104.411 20.1392 103.797 20.4951C103.177 20.8563 102.456 21.0343 101.634 21.0343ZM92.5112 12.887C93.494 12.887 94.2737 13.1781 94.8506 13.7605C95.4274 14.3428 95.7158 15.2217 95.7158 16.3864V20.9156H93.4405V16.7368C93.4405 16.1114 93.3124 15.6423 93.056 15.3295C92.7996 15.0222 92.4311 14.8658 91.9558 14.8658C91.4217 14.8658 90.9997 15.0384 90.6899 15.3888C90.3802 15.7393 90.2253 16.2516 90.2253 16.9417V20.9156H87.95V16.7368C87.95 15.4913 87.4533 14.8712 86.4652 14.8712C85.9418 14.8712 85.5252 15.0438 85.2101 15.3942C84.9003 15.7447 84.7454 16.2569 84.7454 16.9471V20.921H82.4702V13.0056H84.6386V13.9168C84.9324 13.5825 85.2849 13.3291 85.7068 13.1512C86.1287 12.9732 86.5934 12.887 87.1008 12.887C87.6563 12.887 88.153 12.9948 88.6016 13.2159C89.0503 13.4369 89.4081 13.7551 89.6805 14.181C90.001 13.7712 90.4069 13.4531 90.8982 13.2266C91.3896 13.0002 91.9237 12.887 92.5112 12.887ZM76.6538 14.6232C76.0823 14.6232 75.6123 14.8119 75.2545 15.1839C74.8966 15.556 74.7044 16.0736 74.6883 16.7261L78.5072 15.9766C78.4003 15.5668 78.1814 15.2379 77.8502 14.9898C77.5191 14.7418 77.1185 14.6232 76.6538 14.6232ZM76.9903 19.1956C77.3962 19.1956 77.7594 19.1363 78.0745 19.0123C78.3896 18.8882 78.6834 18.6941 78.9558 18.4299L80.1629 19.7564C79.4258 20.6083 78.3469 21.0343 76.9262 21.0343C76.045 21.0343 75.2598 20.8617 74.5815 20.5112C73.9032 20.1608 73.3798 19.6809 73.0059 19.0608C72.6374 18.4407 72.4505 17.7398 72.4505 16.9579C72.4505 16.1815 72.6321 15.4859 72.9953 14.8604C73.3584 14.2403 73.8605 13.7551 74.4961 13.4046C75.1316 13.0541 75.8473 12.8816 76.6431 12.8816C77.3909 12.8816 78.0692 13.0433 78.6834 13.3614C79.2976 13.6796 79.7836 14.1433 80.1468 14.7418C80.51 15.3457 80.6916 16.0574 80.6916 16.8824L74.8913 18.0147C75.0569 18.4084 75.3186 18.6995 75.6711 18.899C76.0396 19.0985 76.4722 19.1956 76.9903 19.1956ZM67.8946 18.9745V14.9143C67.8946 14.1109 67.6917 13.5016 67.2911 13.0918C66.8852 12.6821 66.3244 12.4718 65.5926 12.4718C64.8716 12.4718 64.3055 12.6767 63.8942 13.0918C63.483 13.5016 63.2747 14.1109 63.2747 14.9143V18.9745H67.8946ZM71.5105 18.9745V23.0509H69.326V20.9156H61.8646V23.0509H59.6802L59.6962 18.9745H60.9193V15.1192C60.9193 14.1271 61.1116 13.2806 61.5015 12.5796C61.8913 11.8786 62.4361 11.3448 63.1411 10.9836C63.8461 10.6223 64.6633 10.439 65.598 10.439C66.5327 10.439 67.3498 10.6223 68.0548 10.9836C68.7599 11.3448 69.3046 11.8786 69.6945 12.5796C70.0844 13.2806 70.2767 14.1271 70.2767 15.1192V18.9745H71.5105Z" fill="white"/>
</svg>
