<svg width="246" height="2766" viewBox="0 0 246 2766" fill="none" xmlns="http://www.w3.org/2000/svg">
<path d="M84.1735 600.3C67.5175 609.917 48.6432 615.027 29.4108 615.128C10.1784 615.228 -8.74838 610.316 -25.5042 600.875C-42.2599 591.433 -56.2664 577.789 -66.1432 561.286C-76.02 544.783 -81.4261 525.991 -81.8289 506.763L-37.5649 505.836C-37.3232 517.373 -34.0795 528.648 -28.1534 538.549C-22.2274 548.451 -13.8235 556.638 -3.77 562.303C6.28347 567.968 17.6395 570.915 29.179 570.855C40.7184 570.794 52.043 567.728 62.0366 561.958L84.1735 600.3Z" fill="#76B728"/>
<path opacity="0.3" d="M17.3688 1689.17C17.3688 1665.92 21.9495 1642.89 30.8493 1621.4C39.7492 1599.91 52.7939 1580.39 69.2387 1563.95C85.6835 1547.5 105.206 1534.46 126.692 1525.56C148.179 1516.66 171.207 1512.08 194.464 1512.08L194.464 1582.91C180.51 1582.91 166.693 1585.66 153.801 1591C140.909 1596.34 129.196 1604.17 119.329 1614.04C109.462 1623.9 101.635 1635.62 96.2951 1648.51C90.9552 1661.4 88.2068 1675.22 88.2068 1689.17H17.3688Z" fill="#009DE2"/>
<path d="M17.4919 1720.16C17.4919 1735.55 21.501 1750.67 29.1242 1764.03C36.7474 1777.4 47.7215 1788.55 60.965 1796.38C74.2085 1804.21 89.2643 1808.46 104.649 1808.7C120.033 1808.94 135.215 1805.17 148.698 1797.76L127.368 1758.96C120.627 1762.67 113.036 1764.55 105.344 1764.43C97.6519 1764.31 90.124 1762.19 83.5022 1758.27C76.8805 1754.36 71.3934 1748.78 67.5818 1742.1C63.7702 1735.42 61.7656 1727.86 61.7656 1720.16H17.4919Z" fill="#FCC200"/>
<path d="M63.5515 293.614C40.2951 293.614 17.2663 298.194 -4.21984 307.094C-25.706 315.994 -45.2288 329.039 -61.6736 345.484C-78.1184 361.928 -91.1632 381.451 -100.063 402.937C-108.963 424.424 -113.544 447.452 -113.544 470.709L-42.7055 470.709C-42.7055 456.755 -39.9571 442.938 -34.6172 430.046C-29.2773 417.154 -21.4504 405.441 -11.5836 395.574C-1.71669 385.707 9.997 377.88 22.8887 372.54C35.7804 367.2 49.5976 364.452 63.5515 364.452L63.5515 293.614Z" fill="#E4310E"/>
<path d="M141.336 1671.46C141.336 1651.9 157.193 1636.04 176.755 1636.04C196.316 1636.04 212.174 1651.9 212.174 1671.46C212.174 1691.02 196.316 1706.88 176.755 1706.88C157.193 1706.88 141.336 1691.02 141.336 1671.46Z" fill="#EB6502"/>
<path d="M16.2725 1256.96C23.9656 1270.28 34.9979 1281.37 48.2822 1289.14C61.5666 1296.9 76.6444 1301.07 92.0297 1301.23C107.415 1301.39 122.577 1297.54 136.021 1290.05C149.465 1282.57 160.727 1271.72 168.697 1258.55L130.827 1235.62C126.842 1242.2 121.211 1247.63 114.489 1251.37C107.767 1255.11 100.186 1257.04 92.4933 1256.96C84.8006 1256.88 77.2617 1254.79 70.6196 1250.91C63.9774 1247.03 58.4612 1241.48 54.6147 1234.82L16.2725 1256.96Z" fill="#5E4E9B"/>
<path d="M75.3383 1203.04C75.3383 1193.25 83.2671 1185.33 93.0478 1185.33C102.829 1185.33 110.757 1193.25 110.757 1203.04C110.757 1212.82 102.829 1220.74 93.0478 1220.74C83.2671 1220.74 75.3383 1212.82 75.3383 1203.04Z" fill="#E4007D"/>
<path d="M142 2003.71C142 1993.93 149.929 1986 159.709 1986C169.49 1986 177.419 1993.93 177.419 2003.71C177.419 2013.49 169.49 2021.42 159.709 2021.42C149.929 2021.42 142 2013.49 142 2003.71Z" fill="#FCC200"/>
<path d="M117.626 667.292C129.254 667.292 140.769 669.582 151.512 674.032C162.255 678.482 172.016 685.004 180.239 693.227C188.461 701.449 194.983 711.211 199.433 721.954C203.883 732.697 206.174 744.211 206.174 755.839L161.9 755.839C161.9 750.025 160.755 744.268 158.53 738.897C156.305 733.525 153.043 728.644 148.932 724.533C144.821 720.422 139.94 717.161 134.569 714.936C129.197 712.711 123.44 711.566 117.626 711.566L117.626 667.292Z" fill="#EB6502"/>
<path d="M87.5476 2229C87.5476 2240.63 85.2572 2252.14 80.8073 2262.89C76.3573 2273.63 69.835 2283.39 61.6126 2291.61C53.3902 2299.83 43.6288 2306.36 32.8857 2310.81C22.1426 2315.26 10.6282 2317.55 -1.00001 2317.55L-0.999997 2273.27C4.81412 2273.27 10.5713 2272.13 15.9428 2269.9C21.3144 2267.68 26.1951 2264.42 30.3063 2260.31C34.4175 2256.2 37.6787 2251.31 39.9036 2245.94C42.1286 2240.57 43.2738 2234.81 43.2738 2229L87.5476 2229Z" fill="#EB6502"/>
<path d="M16.4191 2415C-3.14227 2415 -18.9999 2430.86 -18.9999 2450.42C-18.9999 2469.98 -3.14227 2485.84 16.4191 2485.84C35.9805 2485.84 51.8381 2469.98 51.8381 2450.42C51.8381 2430.86 35.9805 2415 16.4191 2415Z" fill="#009DE2"/>
<path d="M161.755 990.933C161.755 981.152 169.683 973.224 179.464 973.224C189.245 973.224 197.174 981.152 197.174 990.933C197.174 1000.71 189.245 1008.64 179.464 1008.64C169.683 1008.64 161.755 1000.71 161.755 990.933Z" fill="#EB6502"/>
<path d="M-48.2766 207.274C-48.2766 182.822 -28.4545 163 -4.00278 163C20.449 163 40.271 182.822 40.271 207.274C40.271 231.726 20.449 251.548 -4.00278 251.548C-28.4545 251.548 -48.2766 231.726 -48.2766 207.274Z" fill="#5E4E9B"/>
<path d="M113.968 412.643C113.968 397.256 117.977 382.136 125.6 368.771C133.224 355.406 144.198 344.258 157.441 336.426C170.685 328.594 185.74 324.348 201.125 324.106C216.509 323.864 231.691 327.635 245.174 335.048L223.845 373.845C217.103 370.139 209.512 368.253 201.82 368.374C194.128 368.495 186.6 370.618 179.978 374.534C173.357 378.45 167.869 384.024 164.058 390.707C160.246 397.389 158.242 404.949 158.242 412.643L113.968 412.643Z" fill="#134093"/>
<path opacity="0.3" d="M187.287 1924.63C173.962 1932.32 158.863 1936.41 143.477 1936.49C128.091 1936.57 112.95 1932.64 99.545 1925.09C86.1404 1917.53 74.9353 1906.62 67.0338 1893.42C59.1324 1880.21 54.8075 1865.18 54.4852 1849.8L98.7493 1848.87C98.9104 1856.56 101.073 1864.08 105.024 1870.68C108.974 1877.28 114.577 1882.74 121.279 1886.51C127.982 1890.29 135.552 1892.26 143.245 1892.22C150.938 1892.18 158.488 1890.13 165.15 1886.29L187.287 1924.63Z" fill="#134093"/>
<g opacity="0.3">
<path d="M226.643 265.643C226.643 230.758 219.772 196.215 206.422 163.986C193.072 131.756 173.505 102.472 148.838 77.8049C124.171 53.1377 94.8863 33.5706 62.657 20.2208C30.4278 6.87097 -4.11531 -6.10352e-05 -39 -6.10352e-05L-39 106.257C-18.0692 106.257 2.65668 110.38 21.9942 118.39C41.3318 126.399 58.9023 138.14 73.7026 152.94C88.5029 167.74 100.243 185.311 108.253 204.648C116.263 223.986 120.386 244.712 120.386 265.643L226.643 265.643Z" fill="#E4007D"/>
</g>
<g opacity="0.3">
<path d="M23.0001 479.274C23.0001 454.822 42.8221 435 67.2738 435C91.7256 435 111.548 454.822 111.548 479.274C111.548 503.726 91.7256 523.548 67.2738 523.548C42.8221 523.548 23.0001 503.726 23.0001 479.274Z" fill="#5E4E9B"/>
</g>
<g opacity="0.3">
<path d="M29.419 667C48.9804 667 64.838 682.858 64.838 702.419C64.838 721.981 48.9804 737.838 29.419 737.838C9.85763 737.838 -6 721.981 -6 702.419C-6 682.858 9.85764 667 29.419 667Z" fill="#009DE2"/>
</g>
<g opacity="0.3">
<path d="M115 589.457C115 575.398 126.398 564 140.457 564C154.517 564 165.915 575.398 165.915 589.457C165.915 603.517 154.517 614.915 140.457 614.915C126.398 614.915 115 603.517 115 589.457Z" fill="#00953F"/>
</g>
<g opacity="0.3">
<path d="M-20.0002 1008.64C-20.0002 952.543 -2.2406 897.885 30.7331 852.5C63.7068 807.116 110.202 773.335 163.554 756L196.39 857.056C164.378 867.458 136.481 887.726 116.697 914.957C96.9126 942.187 86.2569 974.982 86.2569 1008.64L-20.0002 1008.64Z" fill="#00953F"/>
</g>
<g opacity="0.3">
<path d="M-35.0001 1129.86C-25.3838 1113.2 -11.5933 1099.34 5.01209 1089.63C21.6175 1079.93 40.4647 1074.72 59.6964 1074.52C78.928 1074.32 97.8802 1079.13 114.685 1088.48C131.49 1097.84 145.568 1111.41 155.531 1127.86L117.661 1150.8C111.683 1140.92 103.236 1132.78 93.1533 1127.17C83.0703 1121.56 71.699 1118.67 60.16 1118.79C48.621 1118.91 37.3127 1122.04 27.3494 1127.86C17.3862 1133.68 9.11191 1142 3.34211 1151.99L-35.0001 1129.86Z" fill="#EB6502"/>
</g>
<g opacity="0.3">
<path d="M129 1380C129 1391.63 131.29 1403.14 135.74 1413.89C140.19 1424.63 146.713 1434.39 154.935 1442.61C163.157 1450.83 172.919 1457.36 183.662 1461.81C194.405 1466.26 205.919 1468.55 217.548 1468.55L217.548 1424.27C211.733 1424.27 205.976 1423.13 200.605 1420.9C195.233 1418.68 190.353 1415.42 186.241 1411.31C182.13 1407.2 178.869 1402.31 176.644 1396.94C174.419 1391.57 173.274 1385.81 173.274 1380H129Z" fill="#E4007D"/>
</g>
<g opacity="0.3">
<path d="M38 1380.46C38 1366.4 49.3976 1355 63.4574 1355C77.5171 1355 88.9148 1366.4 88.9148 1380.46C88.9148 1394.52 77.5171 1405.91 63.4574 1405.91C49.3976 1405.91 38 1394.52 38 1380.46Z" fill="#00953F"/>
</g>
<g opacity="0.3">
<path d="M-38.0001 1952C-38.0001 1986.88 -31.129 2021.43 -17.7792 2053.66C-4.42944 2085.89 15.1377 2115.17 39.8049 2139.84C64.4721 2164.5 93.7563 2184.07 125.986 2197.42C158.215 2210.77 192.758 2217.64 227.643 2217.64L227.643 2111.39C206.712 2111.39 185.986 2107.26 166.648 2099.25C147.311 2091.24 129.74 2079.5 114.94 2064.7C100.14 2049.9 88.3994 2032.33 80.3895 2012.99C72.3796 1993.66 68.257 1972.93 68.257 1952H-38.0001Z" fill="#E4007D"/>
</g>
<g opacity="0.3">
<path d="M203.684 2267C184.452 2267 165.551 2272.01 148.845 2281.54C132.139 2291.07 118.204 2304.79 108.414 2321.34C98.6234 2337.9 93.3157 2356.72 93.0136 2375.95C92.7115 2395.18 97.4254 2414.15 106.691 2431.01L145.488 2409.68C139.929 2399.57 137.101 2388.18 137.282 2376.64C137.463 2365.1 140.648 2353.81 146.522 2343.88C152.396 2333.95 160.757 2325.72 170.781 2320C180.804 2314.28 192.145 2311.27 203.684 2311.27L203.684 2267Z" fill="#76B728"/>
</g>
<g opacity="0.3">
<path d="M217.655 2587.01C177.988 2626.68 126.78 2652.77 71.3729 2661.55C15.9654 2670.32 -40.7981 2661.33 -90.782 2635.86L-42.5423 2541.19C-12.552 2556.47 21.5061 2561.86 54.7506 2556.6C87.9952 2551.33 118.719 2535.68 142.52 2511.88L217.655 2587.01Z" fill="#E4310E"/>
</g>
</svg>
