<svg width="228" height="2766" viewBox="0 0 228 2766" fill="none" xmlns="http://www.w3.org/2000/svg">
<path d="M161 2165.35C177.656 2155.74 196.53 2150.63 215.763 2150.53C234.995 2150.43 253.922 2155.34 270.678 2164.78C287.434 2174.22 301.44 2187.87 311.317 2204.37C321.194 2220.87 326.6 2239.66 327.003 2258.89L282.738 2259.82C282.497 2248.28 279.253 2237.01 273.327 2227.11C267.401 2217.2 258.997 2209.02 248.944 2203.35C238.89 2197.69 227.534 2194.74 215.995 2194.8C204.455 2194.86 193.131 2197.93 183.137 2203.7L161 2165.35Z" fill="#76B728"/>
<path opacity="0.3" d="M227.805 1076.48C227.805 1099.74 223.224 1122.77 214.324 1144.25C205.424 1165.74 192.38 1185.26 175.935 1201.71C159.49 1218.15 139.967 1231.2 118.481 1240.1C96.9949 1249 73.9662 1253.58 50.7097 1253.58L50.7097 1182.74C64.6636 1182.74 78.4808 1179.99 91.3725 1174.65C104.264 1169.31 115.978 1161.49 125.845 1151.62C135.712 1141.75 143.539 1130.04 148.878 1117.15C154.218 1104.25 156.967 1090.44 156.967 1076.48H227.805Z" fill="#009DE2"/>
<path d="M227.682 1045.49C227.682 1030.11 223.673 1014.99 216.049 1001.62C208.426 988.255 197.452 977.108 184.209 969.275C170.965 961.443 155.909 957.197 140.525 956.955C125.141 956.714 109.959 960.485 96.4761 967.897L117.805 1006.69C124.547 1002.99 132.137 1001.1 139.83 1001.22C147.522 1001.34 155.05 1003.47 161.671 1007.38C168.293 1011.3 173.78 1016.87 177.592 1023.56C181.403 1030.24 183.408 1037.8 183.408 1045.49H227.682Z" fill="#FCC200"/>
<path d="M181.622 2472.04C204.879 2472.04 227.907 2467.46 249.393 2458.56C270.88 2449.66 290.402 2436.62 306.847 2420.17C323.292 2403.73 336.337 2384.2 345.237 2362.72C354.136 2341.23 358.717 2318.2 358.717 2294.95L287.879 2294.95C287.879 2308.9 285.131 2322.72 279.791 2335.61C274.451 2348.5 266.624 2360.21 256.757 2370.08C246.89 2379.95 235.177 2387.78 222.285 2393.12C209.393 2398.45 195.576 2401.2 181.622 2401.2L181.622 2472.04Z" fill="#E4310E"/>
<path d="M103.838 1094.19C103.838 1113.75 87.9804 1129.61 68.419 1129.61C48.8576 1129.61 33 1113.75 33 1094.19C33 1074.63 48.8576 1058.77 68.419 1058.77C87.9804 1058.77 103.838 1074.63 103.838 1094.19Z" fill="#EB6502"/>
<path d="M228.901 1508.7C221.208 1495.37 210.176 1484.28 196.891 1476.52C183.607 1468.76 168.529 1464.59 153.144 1464.43C137.759 1464.27 122.597 1468.12 109.153 1475.6C95.7089 1483.08 84.4467 1493.94 76.4763 1507.1L114.346 1530.04C118.332 1523.46 123.963 1518.03 130.685 1514.29C137.407 1510.54 144.988 1508.62 152.68 1508.7C160.373 1508.78 167.912 1510.86 174.554 1514.74C181.196 1518.63 186.712 1524.17 190.559 1530.83L228.901 1508.7Z" fill="#5E4E9B"/>
<path d="M169.835 1562.62C169.835 1572.4 161.906 1580.33 152.126 1580.33C142.345 1580.33 134.416 1572.4 134.416 1562.62C134.416 1552.84 142.345 1544.91 152.126 1544.91C161.906 1544.91 169.835 1552.84 169.835 1562.62Z" fill="#E4007D"/>
<path d="M103.174 761.946C103.174 771.726 95.2448 779.655 85.4641 779.655C75.6835 779.655 67.7546 771.726 67.7546 761.946C67.7546 752.165 75.6835 744.236 85.4641 744.236C95.2448 744.236 103.174 752.165 103.174 761.946Z" fill="#FCC200"/>
<path d="M127.548 2098.36C115.919 2098.36 104.405 2096.07 93.6619 2091.62C82.9188 2087.17 73.1574 2080.65 64.935 2072.43C56.7126 2064.21 50.1903 2054.44 45.7403 2043.7C41.2904 2032.96 39.0001 2021.44 39.0001 2009.82L83.2738 2009.82C83.2738 2015.63 84.419 2021.39 86.644 2026.76C88.8689 2032.13 92.1301 2037.01 96.2413 2041.12C100.353 2045.23 105.233 2048.49 110.605 2050.72C115.976 2052.94 121.733 2054.09 127.548 2054.09L127.548 2098.36Z" fill="#EB6502"/>
<path d="M157.626 536.655C157.626 525.027 159.916 513.512 164.366 502.769C168.816 492.026 175.339 482.265 183.561 474.042C191.783 465.82 201.545 459.298 212.288 454.848C223.031 450.398 234.545 448.107 246.174 448.107L246.174 492.381C240.359 492.381 234.602 493.526 229.231 495.751C223.859 497.976 218.979 501.238 214.867 505.349C210.756 509.46 207.495 514.341 205.27 519.712C203.045 525.084 201.9 530.841 201.9 536.655L157.626 536.655Z" fill="#EB6502"/>
<path d="M228.755 350.655C248.316 350.655 264.174 334.797 264.174 315.236C264.174 295.675 248.316 279.817 228.755 279.817C209.193 279.817 193.336 295.675 193.336 315.236C193.336 334.797 209.193 350.655 228.755 350.655Z" fill="#009DE2"/>
<path d="M83.419 1774.72C83.419 1784.5 75.4902 1792.43 65.7095 1792.43C55.9288 1792.43 48 1784.5 48 1774.72C48 1764.94 55.9288 1757.01 65.7095 1757.01C75.4902 1757.01 83.419 1764.94 83.419 1774.72Z" fill="#EB6502"/>
<path d="M293.45 2558.38C293.45 2582.83 273.628 2602.65 249.176 2602.65C224.725 2602.65 204.903 2582.83 204.903 2558.38C204.903 2533.93 224.725 2514.11 249.176 2514.11C273.628 2514.11 293.45 2533.93 293.45 2558.38Z" fill="#5E4E9B"/>
<path d="M131.206 2353.01C131.206 2368.4 127.196 2383.52 119.573 2396.88C111.95 2410.25 100.976 2421.4 87.7325 2429.23C74.489 2437.06 59.4332 2441.31 44.0489 2441.55C28.6647 2441.79 13.483 2438.02 -1.35671e-05 2430.61L21.329 2391.81C28.0705 2395.52 35.6614 2397.4 43.3535 2397.28C51.0456 2397.16 58.5735 2395.04 65.1953 2391.12C71.817 2387.2 77.3041 2381.63 81.1157 2374.95C84.9273 2368.27 86.9319 2360.71 86.9319 2353.01L131.206 2353.01Z" fill="#134093"/>
<path opacity="0.3" d="M57.8863 841.028C71.2111 833.335 86.3105 829.246 101.696 829.166C117.082 829.085 132.224 833.015 145.628 840.568C159.033 848.121 170.238 859.037 178.14 872.239C186.041 885.442 190.366 900.475 190.688 915.858L146.424 916.785C146.263 909.093 144.101 901.577 140.15 894.976C136.199 888.374 130.597 882.917 123.894 879.14C117.192 875.364 109.621 873.399 101.928 873.439C94.2353 873.479 86.6856 875.523 80.0232 879.37L57.8863 841.028Z" fill="#134093"/>
<g opacity="0.3">
<path d="M18.5309 2500.01C18.5309 2534.9 25.402 2569.44 38.7518 2601.67C52.1016 2633.9 71.6687 2663.18 96.3359 2687.85C121.003 2712.52 150.287 2732.08 182.517 2745.43C214.746 2758.78 249.289 2765.66 284.174 2765.66L284.174 2659.4C263.243 2659.4 242.517 2655.28 223.179 2647.27C203.842 2639.26 186.271 2627.52 171.471 2612.72C156.671 2597.91 144.93 2580.34 136.921 2561.01C128.911 2541.67 124.788 2520.94 124.788 2500.01H18.5309Z" fill="#E4007D"/>
</g>
<g opacity="0.3">
<path d="M222.174 2286.38C222.174 2310.83 202.352 2330.65 177.9 2330.65C153.448 2330.65 133.626 2310.83 133.626 2286.38C133.626 2261.93 153.448 2242.11 177.9 2242.11C202.352 2242.11 222.174 2261.93 222.174 2286.38Z" fill="#5E4E9B"/>
</g>
<g opacity="0.3">
<path d="M215.755 2098.66C196.193 2098.66 180.336 2082.8 180.336 2063.24C180.336 2043.67 196.193 2027.82 215.755 2027.82C235.316 2027.82 251.174 2043.67 251.174 2063.24C251.174 2082.8 235.316 2098.66 215.755 2098.66Z" fill="#009DE2"/>
</g>
<g opacity="0.3">
<path d="M130.174 2176.2C130.174 2190.26 118.776 2201.66 104.716 2201.66C90.6564 2201.66 79.2587 2190.26 79.2587 2176.2C79.2587 2162.14 90.6564 2150.74 104.716 2150.74C118.776 2150.74 130.174 2162.14 130.174 2176.2Z" fill="#00953F"/>
</g>
<g opacity="0.3">
<path d="M265.174 1757.01C265.174 1813.11 247.414 1867.77 214.44 1913.15C181.467 1958.54 134.972 1992.32 81.619 2009.66L48.7838 1908.6C80.7954 1898.2 108.692 1877.93 128.477 1850.7C148.261 1823.47 158.917 1790.67 158.917 1757.01L265.174 1757.01Z" fill="#00953F"/>
</g>
<g opacity="0.3">
<path d="M280.174 1635.8C270.557 1652.46 256.767 1666.32 240.161 1676.02C223.556 1685.73 204.709 1690.93 185.477 1691.14C166.245 1691.34 147.293 1686.52 130.488 1677.17C113.683 1667.82 99.6056 1654.25 89.6425 1637.79L127.513 1614.86C133.491 1624.73 141.937 1632.87 152.02 1638.49C162.103 1644.1 173.475 1646.99 185.013 1646.86C196.552 1646.74 207.861 1643.62 217.824 1637.8C227.787 1631.97 236.062 1623.66 241.831 1613.66L280.174 1635.8Z" fill="#EB6502"/>
</g>
<g opacity="0.3">
<path d="M116.174 1385.66C116.174 1374.03 113.883 1362.51 109.433 1351.77C104.983 1341.03 98.461 1331.26 90.2386 1323.04C82.0162 1314.82 72.2548 1308.3 61.5117 1303.85C50.7686 1299.4 39.2543 1297.11 27.626 1297.11L27.626 1341.38C33.4402 1341.38 39.1973 1342.53 44.5689 1344.75C49.9404 1346.98 54.8211 1350.24 58.9323 1354.35C63.0435 1358.46 66.3047 1363.34 68.5297 1368.71C70.7546 1374.08 71.8998 1379.84 71.8998 1385.66H116.174Z" fill="#E4007D"/>
</g>
<g opacity="0.3">
<path d="M207.174 1385.2C207.174 1399.26 195.776 1410.66 181.716 1410.66C167.656 1410.66 156.259 1399.26 156.259 1385.2C156.259 1371.14 167.656 1359.74 181.716 1359.74C195.776 1359.74 207.174 1371.14 207.174 1385.2Z" fill="#00953F"/>
</g>
<g opacity="0.3">
<path d="M283.174 813.655C283.174 778.77 276.303 744.227 262.953 711.998C249.603 679.769 230.036 650.485 205.369 625.817C180.701 601.15 151.417 581.583 119.188 568.233C86.9587 554.883 52.4156 548.012 17.5309 548.012L17.5309 654.269C38.4618 654.269 59.1876 658.392 78.5252 666.402C97.8627 674.412 115.433 686.152 130.234 700.952C145.034 715.753 156.774 733.323 164.784 752.661C172.794 771.998 176.917 792.724 176.917 813.655H283.174Z" fill="#E4007D"/>
</g>
<g opacity="0.3">
<path d="M41.4891 498.655C60.7218 498.655 79.6226 493.644 96.3287 484.115C113.035 474.586 126.97 460.868 136.76 444.314C146.55 427.759 151.858 408.939 152.16 389.709C152.462 370.479 147.748 351.502 138.483 334.648L99.6852 355.977C105.244 366.089 108.073 377.476 107.892 389.014C107.71 400.552 104.526 411.844 98.6516 421.776C92.7774 431.709 84.4165 439.94 74.3929 445.657C64.3692 451.374 53.0287 454.381 41.4891 454.381L41.4891 498.655Z" fill="#76B728"/>
</g>
<g opacity="0.3">
<path d="M27.5186 178.644C67.186 138.977 118.393 112.886 173.801 104.11C229.208 95.3342 285.972 104.325 335.956 129.793L287.716 224.468C257.726 209.188 223.667 203.793 190.423 209.059C157.178 214.324 126.454 229.979 102.654 253.779L27.5186 178.644Z" fill="#E4310E"/>
</g>
</svg>
