<svg width="28" height="16" viewBox="0 0 28 16" fill="none" xmlns="http://www.w3.org/2000/svg">
<path d="M25.8131 14.9414C25.8421 15.4405 25.8423 15.4405 25.8425 15.4405L25.843 15.4405L25.844 15.4404L25.8465 15.4403L25.8535 15.4398L25.8753 15.4381C25.893 15.4366 25.9172 15.4343 25.9466 15.4309C26.0053 15.4242 26.0864 15.4129 26.1803 15.3944C26.3616 15.3586 26.62 15.2902 26.8588 15.1559C27.0974 15.0216 27.3731 14.7876 27.4678 14.4033C27.5623 14.0199 27.4445 13.6176 27.1896 13.2186C27.1905 13.2201 27.191 13.2209 27.1908 13.2204C27.1903 13.2197 27.1881 13.216 27.1829 13.2071L27.1787 13.1998C27.1721 13.1883 27.1632 13.173 27.1531 13.1559C27.1276 13.1125 27.0928 13.0552 27.0465 12.9841C26.9539 12.8419 26.818 12.6496 26.619 12.4047C26.2215 11.9157 25.5731 11.2183 24.5161 10.2923L24.1866 10.6683L24.5161 10.2923L24.495 10.2738C23.9461 9.79292 23.6036 9.49285 23.4016 9.2458C23.2199 9.02364 23.2245 8.93396 23.2432 8.85063C23.2794 8.68872 23.4204 8.44141 23.7904 7.96654C23.9707 7.73509 24.1768 7.48354 24.4197 7.18716C24.6737 6.87709 24.968 6.51795 25.315 6.08142C26.1207 5.06786 26.701 4.23176 27.0561 3.56948C27.2334 3.23884 27.3641 2.93424 27.4346 2.66057C27.5032 2.39473 27.5298 2.10133 27.4274 1.83154L27.4273 1.83129C27.3121 1.52829 27.0634 1.36551 26.8614 1.27994C26.6573 1.1935 26.4351 1.15638 26.2523 1.1394C26.0645 1.12195 25.8881 1.12326 25.7613 1.1284C25.697 1.131 25.6436 1.13467 25.6053 1.13778C25.5909 1.13895 25.5786 1.14005 25.5686 1.14099L21.7085 1.16368C21.6958 1.1626 21.6805 1.1615 21.6631 1.16058C21.6181 1.15822 21.5562 1.15698 21.4844 1.16119C21.3504 1.16905 21.1374 1.19816 20.9351 1.3123L20.9344 1.31271C20.7359 1.4251 20.5987 1.59307 20.5224 1.70004C20.4808 1.75837 20.4484 1.8112 20.4261 1.85015C20.4149 1.86981 20.4059 1.88645 20.3992 1.8991L20.3909 1.91511L20.3881 1.92076L20.387 1.92296L20.3866 1.9239L20.3863 1.92433L20.3862 1.92453C20.3862 1.92463 20.3862 1.92473 20.8356 2.1439L20.3862 1.92473L20.3779 1.94159L20.371 1.95895L20.371 1.95897L20.371 1.95901L20.371 1.95903L20.3708 1.95955L20.3697 1.9623L20.3648 1.97432L20.3449 2.02326C20.3271 2.06653 20.3005 2.13044 20.266 2.21154C20.1969 2.37381 20.096 2.6044 19.9697 2.87563C19.7162 3.42024 19.3649 4.11929 18.9674 4.75631L18.9674 4.75636C18.1037 6.14066 17.5273 6.82131 17.1605 7.1338C17.0221 7.25166 16.9315 7.30151 16.8832 7.32188C16.7899 7.23369 16.7055 7.04759 16.6717 6.67C16.6462 6.38481 16.6548 6.09778 16.6638 5.79541C16.6686 5.63448 16.6736 5.46921 16.6736 5.29755C16.6736 4.68661 16.6961 4.15792 16.716 3.69318C16.7177 3.65324 16.7193 3.61377 16.721 3.57476C16.7414 3.09174 16.7577 2.65638 16.7292 2.2924C16.7007 1.92928 16.6238 1.56518 16.4024 1.26482C16.1704 0.950185 15.8345 0.777174 15.4387 0.686947L25.8131 14.9414ZM25.8131 14.9414L25.8131 14.9414L25.8421 15.4405L25.8309 15.4412L25.8197 15.4413L22.3802 15.4866C22.3752 15.4872 22.3699 15.4878 22.3643 15.4885C22.3297 15.4925 22.2837 15.4965 22.2274 15.4986C22.1148 15.5027 21.9606 15.4991 21.7736 15.4721C21.3978 15.4178 20.8965 15.2698 20.3408 14.9095C19.9692 14.6687 19.6184 14.3427 19.2985 14.0161C19.1164 13.8302 18.9232 13.6212 18.74 13.4232C18.6139 13.2869 18.4926 13.1557 18.3829 13.0407C18.0907 12.7343 17.8408 12.4978 17.6225 12.3534C17.3976 12.2047 17.3039 12.2178 17.2784 12.2254C17.1964 12.25 17.1044 12.3175 17.0106 12.4761C16.9155 12.6368 16.8431 12.8521 16.7922 13.0891C16.7422 13.322 16.7182 13.5513 16.7069 13.7249C16.7013 13.8109 16.699 13.8813 16.698 13.9292C16.6976 13.9531 16.6975 13.9713 16.6974 13.9829L16.6975 13.9952L16.6975 13.9964L16.6975 13.9967L16.6975 13.9971L16.6975 13.9972V13.9973L16.6975 13.9974L16.6975 13.9975L16.6975 13.9986L16.6975 14.0016L16.6976 14.0097L16.6973 14.033C16.697 14.0516 16.6961 14.0764 16.6942 14.1061C16.6904 14.1648 16.6822 14.246 16.6644 14.3379C16.6319 14.5055 16.5536 14.7829 16.3406 14.9993L25.8131 14.9414ZM5.56228 1.61852C5.64028 1.12464 5.64037 1.12466 5.64046 1.12467L5.64066 1.1247L5.64107 1.12477L5.64199 1.12491L5.64423 1.12528L5.65026 1.12629L5.66827 1.12948C5.68279 1.13216 5.70233 1.13596 5.72597 1.14104C5.77296 1.15113 5.83755 1.1666 5.91184 1.1888C6.05369 1.23119 6.26057 1.30674 6.44772 1.43636L6.44804 1.43658C6.6278 1.5613 6.75049 1.72518 6.82174 1.83562C6.85958 1.89427 6.88854 1.94674 6.90852 1.98556C6.91859 2.00513 6.92661 2.02165 6.93253 2.03428L6.93992 2.05032L6.94246 2.05604L6.94345 2.0583L6.94388 2.05927L6.94407 2.05972L6.94416 2.05993C6.94421 2.06003 6.94425 2.06014 6.48529 2.25851L6.94425 2.06014L6.94649 2.06531L6.94646 2.06532L6.94667 2.06582L6.94774 2.06838L6.95246 2.07951L6.97185 2.12484C6.98912 2.16493 7.01492 2.22422 7.04844 2.29967C7.11552 2.45062 7.2134 2.66585 7.33575 2.92104C7.5812 3.43297 7.92183 4.09872 8.30715 4.72698L8.30718 4.72703C9.0812 5.98946 9.62157 6.71204 10.0116 7.08471C10.206 7.27041 10.3298 7.33632 10.3937 7.35685C10.4226 7.36612 10.4346 7.3659 10.4433 7.36278C10.4496 7.35591 10.4648 7.33734 10.486 7.29804C10.5257 7.22411 10.5673 7.11183 10.6049 6.95772C10.68 6.64992 10.7213 6.25224 10.74 5.84199C10.7584 5.43642 10.7539 5.03985 10.7446 4.74303C10.7399 4.59511 10.7341 4.47312 10.7295 4.38859C10.7272 4.34634 10.7252 4.31352 10.7238 4.29157L10.7222 4.26699L10.7217 4.26117L10.7217 4.25994L10.7217 4.25985L10.7216 4.25976L10.7216 4.25975L10.7201 4.23879L10.7204 4.21823L10.7204 4.21816L10.7204 4.21797L10.7204 4.21784L10.7204 4.21768L10.7204 4.21717L10.7204 4.21036L10.7202 4.17922C10.7199 4.15108 10.719 4.10901 10.7167 4.05642C10.7123 3.95062 10.7025 3.80541 10.6816 3.64714C10.6359 3.30051 10.5502 3.0036 10.4394 2.86124L10.4392 2.86104C10.3613 2.76086 10.2302 2.67529 10.0591 2.60997C9.89204 2.54618 9.72376 2.51583 9.61752 2.50239L5.56228 1.61852ZM5.56228 1.61852L5.64028 1.12464M5.56228 1.61852L5.64028 1.12464M1.84729 1.64151C1.83415 1.14168 1.83405 1.14168 1.83395 1.14168L1.83373 1.14169L1.83326 1.1417L1.83216 1.14173L1.82933 1.14182L1.82125 1.14212L1.79587 1.14332C1.77513 1.14444 1.74671 1.1463 1.71251 1.14935C1.64492 1.15538 1.55087 1.1664 1.44688 1.18674C1.34459 1.20675 1.22103 1.23799 1.09913 1.28845C0.981694 1.33706 0.832809 1.41689 0.712258 1.55164L1.84729 1.64151ZM1.84729 1.64151L1.83415 1.14168M1.84729 1.64151L1.83415 1.14168M1.07041 2.50971L0.60587 2.69466L0.610154 2.70542L0.614932 2.71597L1.07041 2.50971ZM1.07041 2.50971C0.614932 2.71597 0.614967 2.71605 0.615013 2.71615L0.61516 2.71647L0.615655 2.71756L0.617438 2.72149L0.624157 2.73621L0.650004 2.7924C0.672673 2.84144 0.70612 2.91329 0.749729 3.00559C0.836939 3.19018 0.964836 3.45665 1.12849 3.78619C1.45566 4.44502 1.9264 5.35728 2.50124 6.37201C3.64483 8.39076 5.22311 10.8562 6.92158 12.5255L6.9216 12.5255C8.50542 14.0819 10.2006 14.812 11.5025 15.1517C12.1529 15.3214 12.7059 15.394 13.0998 15.424C13.2969 15.439 13.4545 15.4434 13.5652 15.444C13.6205 15.4442 13.6642 15.4435 13.6951 15.4427C13.7106 15.4422 13.7229 15.4418 13.732 15.4414L13.7325 15.4414H15.2749H15.3007M1.07041 2.50971C0.60587 2.69466 0.60582 2.69453 0.60577 2.69441L0.605667 2.69415L0.605448 2.6936L0.604963 2.69237L0.60381 2.68941L0.60081 2.68157L0.592366 2.65848C0.585807 2.64001 0.577405 2.61511 0.568372 2.58517C0.550669 2.5265 0.528749 2.44262 0.514622 2.34618C0.492203 2.19313 0.46144 1.83202 0.712205 1.5517L15.3007 15.4414M15.3007 15.4414L15.3264 15.4387M15.3007 15.4414L15.3264 15.4387M15.3264 15.4387L15.2749 14.9414M15.3264 15.4387L15.2749 14.9414M15.2749 14.9414C15.3264 15.4387 15.3265 15.4387 15.3267 15.4387M15.2749 14.9414L15.3267 15.4387M5.64028 1.12464L5.59998 1.11828M5.64028 1.12464L5.59998 1.11828M5.59998 1.11828L5.55918 1.11853M5.59998 1.11828L5.55918 1.11853M5.55918 1.11853L1.84419 1.14152L1.84419 1.14141M5.55918 1.11853L1.84419 1.14141M1.84419 1.14141L1.83415 1.14168M1.84419 1.14141L1.83415 1.14168M15.3267 15.4387L15.3269 15.4387M15.3267 15.4387L15.3269 15.4387M15.3269 15.4387L15.3274 15.4386M15.3269 15.4387L15.3274 15.4386M15.3274 15.4386L15.3286 15.4385M15.3274 15.4386L15.3286 15.4385M15.3286 15.4385L15.3315 15.4382M15.3286 15.4385L15.3315 15.4382M15.3315 15.4382L15.3393 15.4373M15.3315 15.4382L15.3393 15.4373M15.3393 15.4373L15.3628 15.4343M15.3393 15.4373L15.3628 15.4343M15.3628 15.4343C15.3818 15.4317 15.4075 15.4279 15.4383 15.4225M15.3628 15.4343L15.4383 15.4225M15.4383 15.4225C15.4994 15.4118 15.5838 15.3943 15.6786 15.3669M15.4383 15.4225L15.6786 15.3669M15.6786 15.3669C15.8521 15.3166 16.1294 15.214 16.3402 14.9998L15.6786 15.3669ZM11.5713 0.540096C11.004 0.582508 10.4677 0.66891 10.0491 0.862481L13.5077 0.503205C12.8109 0.496382 12.1478 0.496992 11.5713 0.540096ZM15.4386 0.686924C14.9742 0.580975 14.6253 0.51383 13.5079 0.503206L15.4386 0.686924Z" stroke="white"/>
</svg>
